<?xml version="1.0" encoding="utf-8"?>
<!-- Generator: Adobe Illustrator 23.1.1, SVG Export Plug-In . SVG Version: 6.00 Build 0)  -->
<svg version="1.1" id="图层_1" xmlns="http://www.w3.org/2000/svg" xmlns:xlink="http://www.w3.org/1999/xlink" x="0px" y="0px"
	 viewBox="0 0 1200 1200" style="enable-background:new 0 0 1200 1200;" xml:space="preserve">
<style type="text/css">
	.st0{fill:url(#SVGID_1_);}
	.st1{fill:#FFFFFF;}
</style>
<linearGradient id="SVGID_1_" gradientUnits="userSpaceOnUse" x1="168.811" y1="174.5443" x2="1039.6765" y2="1033.8303">
	<stop  offset="0" style="stop-color:#5952FE"/>
	<stop  offset="1" style="stop-color:#8A51FE"/>
</linearGradient>
<path class="st0" d="M939.9,1200H260.1C116.4,1200,0,1083.6,0,939.9V260.1C0,116.4,116.4,0,260.1,0h679.9
	C1083.6,0,1200,116.4,1200,260.1v679.9C1200,1083.6,1083.6,1200,939.9,1200z"/>
<g id="BeDzAD.tif">
	<g>
		<path class="st1" d="M347.7,599.7c0-81.1,0.3-162.3-0.1-243.4c-0.1-27.5,12-46.3,36.4-57.8c7.5-3.5,15.7-4.4,23.8-4.4
			c66.9,0,134-3.6,200.7,2.3c80,7,150.9,35.9,204.5,98.5c28.2,32.9,45.8,71.5,56.3,113.3c8.4,33.6,12,68,10.9,102.5
			c-2.4,70-22.6,134.3-65.7,190.1c-12.1,15.7-25.3,30.8-43,41c-24.7,14.2-54.6,9.6-73.7-11.9c-17.5-19.6-17.5-49,0.1-71.7
			c11.6-15,26-27.5,36-43.8c30.2-48.8,35.4-101.8,27.4-157.2c-4.9-33.6-15.2-65.1-37.5-91.5c-27.5-32.5-64-49.1-105-55.8
			c-49-8-98.5-3.2-147.8-4.3c-4.6-0.1-7.1,1.3-6.7,6.3c0.2,2,0.1,4.1,0.1,6.1c0,142,0,284,0,426c0,29.8-14.3,50.3-41.1,59.6
			c-34.6,12-72.9-13.7-75.1-50.3c-0.3-5.1-0.3-10.1-0.3-15.2C347.7,758.6,347.7,679.2,347.7,599.7z"/>
		<path class="st1" d="M522.5,848.2c0.2-32.3,25.5-57.4,57.9-57.3c32.5,0.1,58.2,26.1,58,58.7c-0.2,32.5-26.1,56.9-59.3,57.3
			C550.2,907.2,519.7,880.1,522.5,848.2z"/>
	</g>
</g>
</svg>
